<svg width="824" height="321" viewBox="0 0 824 321" fill="none" xmlns="http://www.w3.org/2000/svg">
<path d="M109.2 243.1C89.4 243.1 71.2 238.5 54.6 229.3C38.2 220.1 25.1 207.3 15.3 190.9C5.7 174.3 0.9 155.7 0.9 135.1C0.9 114.5 5.7 96 15.3 79.6C25.1 63.2 38.2 50.4 54.6 41.2C71.2 32 89.4 27.4 109.2 27.4C129 27.4 147.1 32 163.5 41.2C180.1 50.4 193.1 63.2 202.5 79.6C212.1 96 216.9 114.5 216.9 135.1C216.9 155.7 212.1 174.3 202.5 190.9C192.9 207.3 179.9 220.1 163.5 229.3C147.1 238.5 129 243.1 109.2 243.1ZM109.2 196.3C126 196.3 139.4 190.7 149.4 179.5C159.6 168.3 164.7 153.5 164.7 135.1C164.7 116.5 159.6 101.7 149.4 90.7C139.4 79.5 126 73.9 109.2 73.9C92.2 73.9 78.6 79.4 68.4 90.4C58.4 101.4 53.4 116.3 53.4 135.1C53.4 153.7 58.4 168.6 68.4 179.8C78.6 190.8 92.2 196.3 109.2 196.3ZM296.74 97.3C301.74 89.5 308.64 83.2 317.44 78.4C326.24 73.6 336.54 71.2 348.34 71.2C362.14 71.2 374.64 74.7 385.84 81.7C397.04 88.7 405.84 98.7 412.24 111.7C418.84 124.7 422.14 139.8 422.14 157C422.14 174.2 418.84 189.4 412.24 202.6C405.84 215.6 397.04 225.7 385.84 232.9C374.64 239.9 362.14 243.4 348.34 243.4C336.74 243.4 326.44 241 317.44 236.2C308.64 231.4 301.74 225.2 296.74 217.6V320.8H245.44V73.6H296.74V97.3ZM369.94 157C369.94 144.2 366.34 134.2 359.14 127C352.14 119.6 343.44 115.9 333.04 115.9C322.84 115.9 314.14 119.6 306.94 127C299.94 134.4 296.44 144.5 296.44 157.3C296.44 170.1 299.94 180.2 306.94 187.6C314.14 195 322.84 198.7 333.04 198.7C343.24 198.7 351.94 195 359.14 187.6C366.34 180 369.94 169.8 369.94 157ZM542.353 197.5V241H516.253C497.653 241 483.153 236.5 472.753 227.5C462.353 218.3 457.153 203.4 457.153 182.8V116.2H436.753V73.6H457.153V32.8H508.453V73.6H542.053V116.2H508.453V183.4C508.453 188.4 509.653 192 512.053 194.2C514.453 196.4 518.453 197.5 524.053 197.5H542.353ZM596.728 56.2C587.728 56.2 580.328 53.6 574.528 48.4C568.928 43 566.128 36.4 566.128 28.6C566.128 20.6 568.928 14 574.528 8.79999C580.328 3.39998 587.728 0.699982 596.728 0.699982C605.528 0.699982 612.728 3.39998 618.328 8.79999C624.128 14 627.028 20.6 627.028 28.6C627.028 36.4 624.128 43 618.328 48.4C612.728 53.6 605.528 56.2 596.728 56.2ZM622.228 73.6V241H570.928V73.6H622.228ZM735.605 243.4C719.205 243.4 704.405 239.9 691.205 232.9C678.205 225.9 667.905 215.9 660.305 202.9C652.905 189.9 649.205 174.7 649.205 157.3C649.205 140.1 653.005 125 660.605 112C668.205 98.8 678.605 88.7 691.805 81.7C705.005 74.7 719.805 71.2 736.205 71.2C752.605 71.2 767.405 74.7 780.605 81.7C793.805 88.7 804.205 98.8 811.805 112C819.405 125 823.205 140.1 823.205 157.3C823.205 174.5 819.305 189.7 811.505 202.9C803.905 215.9 793.405 225.9 780.005 232.9C766.805 239.9 752.005 243.4 735.605 243.4ZM735.605 199C745.405 199 753.705 195.4 760.505 188.2C767.505 181 771.005 170.7 771.005 157.3C771.005 143.9 767.605 133.6 760.805 126.4C754.205 119.2 746.005 115.6 736.205 115.6C726.205 115.6 717.905 119.2 711.305 126.4C704.705 133.4 701.405 143.7 701.405 157.3C701.405 170.7 704.605 181 711.005 188.2C717.605 195.4 725.805 199 735.605 199Z" fill="#50C878"/>
</svg>
