<svg width="217" height="217" viewBox="0 0 217 217" fill="none" xmlns="http://www.w3.org/2000/svg">
<path d="M109.2 216.1C89.4 216.1 71.2 211.5 54.6 202.3C38.2 193.1 25.1 180.3 15.3 163.9C5.7 147.3 0.9 128.7 0.9 108.1C0.9 87.5 5.7 69 15.3 52.6C25.1 36.2 38.2 23.4 54.6 14.2C71.2 5 89.4 0.399996 109.2 0.399996C129 0.399996 147.1 5 163.5 14.2C180.1 23.4 193.1 36.2 202.5 52.6C212.1 69 216.9 87.5 216.9 108.1C216.9 128.7 212.1 147.3 202.5 163.9C192.9 180.3 179.9 193.1 163.5 202.3C147.1 211.5 129 216.1 109.2 216.1ZM109.2 169.3C126 169.3 139.4 163.7 149.4 152.5C159.6 141.3 164.7 126.5 164.7 108.1C164.7 89.5 159.6 74.7 149.4 63.7C139.4 52.5 126 46.9 109.2 46.9C92.2 46.9 78.6 52.4 68.4 63.4C58.4 74.4 53.4 89.3 53.4 108.1C53.4 126.7 58.4 141.6 68.4 152.8C78.6 163.8 92.2 169.3 109.2 169.3Z" fill="#50C878"/>
</svg>
